HIERARCHY
ROOT Hips
{
	OFFSET	0.00	0.00	0.00
	CHANNELS 6 Xposition Yposition Zposition Zrotation Xrotation Yrotation
	JOINT LeftUpLeg
	{
		OFFSET	 0.126116	-0.065224	 0.014019
		CHANNELS 3 Zrotation Xrotation Yrotation
		JOINT LeftLeg
		{
			OFFSET	 0.000000	 0.569914	 0.000000
			CHANNELS 3 Zrotation Xrotation Yrotation
			JOINT LeftFoot
			{
				OFFSET	 0.000000	 0.544423	 0.000000
				CHANNELS 3 Zrotation Xrotation Yrotation
				JOINT LeftToeBase
				{
					OFFSET	 0.000000	 0.207117	 0.000000
					CHANNELS 3 Zrotation Xrotation Yrotation
					End Site
					{
						OFFSET	 0.000000	 0.207117	 0.000000
					}
				}
			}
		}
	}
	JOINT RightUpLeg
	{
		OFFSET	-0.124023	-0.065224	 0.008373
		CHANNELS 3 Zrotation Xrotation Yrotation
		JOINT RightLeg
		{
			OFFSET	 0.000000	 0.570047	 0.000000
			CHANNELS 3 Zrotation Xrotation Yrotation
			JOINT RightFoot
			{
				OFFSET	 0.000000	 0.544354	 0.000000
				CHANNELS 3 Zrotation Xrotation Yrotation
				JOINT RightToeBase
				{
					OFFSET	 0.000000	 0.207540	 0.000000
					CHANNELS 3 Zrotation Xrotation Yrotation
					End Site
					{
						OFFSET	 0.000000	 0.207540	 0.000000
					}
				}
			}
		}
	}
	JOINT Spine
	{
		OFFSET	 0.000184	 0.117403	 0.007763
		CHANNELS 3 Zrotation Xrotation Yrotation
		JOINT Spine1
		{
			OFFSET	 0.000000	 0.137269	 0.000000
			CHANNELS 3 Zrotation Xrotation Yrotation
			JOINT Spine2
			{
				OFFSET	 0.000000	 0.156879	 0.000000
				CHANNELS 3 Zrotation Xrotation Yrotation
				JOINT LeftShoulder
				{
					OFFSET	 0.080501	 0.160143	 0.002496
					CHANNELS 3 Zrotation Xrotation Yrotation
					JOINT LeftArm
					{
						OFFSET	 0.000000	 0.164363	 0.000000
						CHANNELS 3 Zrotation Xrotation Yrotation
						JOINT LeftForeArm
						{
							OFFSET	 0.000000	 0.364576	 0.000000
							CHANNELS 3 Zrotation Xrotation Yrotation
							JOINT LeftHand
							{
								OFFSET	 0.000000	 0.360812	 0.000000
								CHANNELS 3 Zrotation Xrotation Yrotation
								JOINT LeftHandIndex1
								{
									OFFSET	 0.000000	 0.086006	 0.000000
									CHANNELS 3 Zrotation Xrotation Yrotation
									JOINT LeftHandIndex2
									{
										OFFSET	 0.000000	 0.047237	 0.000000
										CHANNELS 3 Zrotation Xrotation Yrotation
										JOINT LeftHandIndex3
										{
											OFFSET	-0.004284	 0.038165	 0.000551
											CHANNELS 3 Zrotation Xrotation Yrotation
											End Site
											{
												OFFSET	-0.004284	 0.038165	 0.000551
											}
										}
									}
								}
							}
						}
					}
				}
				JOINT Neck
				{
					OFFSET	 0.000000	 0.176489	 0.000000
					CHANNELS 3 Zrotation Xrotation Yrotation
					JOINT Head
					{
						OFFSET	 0.000000	 0.077941	 0.001747
						CHANNELS 3 Zrotation Xrotation Yrotation
						End Site
						{
							OFFSET	 0.000000	 0.077941	 0.001747
						}
					}
				}
				JOINT RightShoulder
				{
					OFFSET	-0.080363	 0.159706	-0.000306
					CHANNELS 3 Zrotation Xrotation Yrotation
					JOINT RightArm
					{
						OFFSET	 0.000000	 0.164196	 0.000000
						CHANNELS 3 Zrotation Xrotation Yrotation
						JOINT RightForeArm
						{
							OFFSET	 0.000000	 0.365611	 0.000000
							CHANNELS 3 Zrotation Xrotation Yrotation
							JOINT RightHand
							{
								OFFSET	 0.000000	 0.360648	 0.000000
								CHANNELS 3 Zrotation Xrotation Yrotation
								JOINT RightHandIndex1
								{
									OFFSET	 0.000000	 0.069977	 0.000000
									CHANNELS 3 Zrotation Xrotation Yrotation
									JOINT RightHandIndex2
									{
										OFFSET	 0.000000	 0.052305	 0.000000
										CHANNELS 3 Zrotation Xrotation Yrotation
										JOINT RightHandIndex3
										{
											OFFSET	 0.009002	 0.042196	 0.000782
											CHANNELS 3 Zrotation Xrotation Yrotation
											End Site
											{
												OFFSET	 0.009002	 0.042196	 0.000782
											}
										}
									}
								}
							}
						}
					}
				}
			}
		}
	}
}
MOTION
Frames:    11
Frame Time: 0.03333334
 0.001704	 1.271226	 0.063399	-0.118676	-0.005805	-179.996100	-175.730400	 0.617382	-17.851450	 2.006572	-9.384926	-0.092728	-5.710215	 68.838780	 4.601076	 1.292262	 28.425850	-2.713146	 175.418700	 1.415280	 17.885210	-2.195207	-10.553860	 0.063463	 5.904292	 69.340840	-4.792213	-1.288183	 28.361890	 2.710176	-0.091942	 2.730092	 2.742709	-0.658133	 3.641256	 1.447070	 0.593159	-4.638964	-4.171364	-101.478000	 1.740669	 90.353390	 2.059522	 63.737420	 1.131942	 2.193721	 4.579602	 1.367341	 13.141040	 5.539936	 8.047378	-6.580301	 5.266122	 0.000000	 0.000000	 0.000000	 0.000000	 0.000000	 0.000000	 0.000000	 0.089846	-3.783161	 0.005928	 0.010930	 1.223034	-1.024027	 101.796200	-0.213312	-89.955450	-6.408905	 63.391650	-2.365225	-2.789076	 4.269330	 1.385764	-15.558510	 0.495305	 12.866590	 15.208500	 5.323790	 0.000000	 0.000000	 0.000000	 0.000000	 0.000000	 0.000000	 0.000000
 0.001826	 1.271371	 0.064105	-0.020816	-0.406691	 179.992200	-175.607200	 1.209831	-17.868910	 2.065977	-9.657501	-0.082896	-5.694995	 68.920680	 4.556519	 1.292262	 28.425850	-2.713146	 175.502100	 1.917588	 17.878790	-2.212794	-10.636460	 0.060229	 5.835485	 69.324090	-4.714621	-1.288183	 28.361890	 2.710176	 0.005436	 2.328804	 2.747339	-0.673285	 3.586888	 1.455943	 0.600611	-4.613860	-4.171151	-101.478000	 1.740674	 90.353390	 1.755454	 64.404720	 1.376073	 2.114112	 4.414115	 1.373664	 13.269040	 4.831440	 8.242525	-6.580301	 5.266122	 0.000000	 0.000000	 0.000000	 0.000000	 0.000000	 0.000000	 0.000000	 0.089846	-3.783161	 0.005928	 0.010930	 1.223033	-1.024028	 101.796200	-0.213322	-89.955440	-2.500418	 64.030360	-5.909493	-2.614921	 4.003976	 1.051042	-20.406290	-0.541676	 9.624029	 15.208500	 5.323790	 0.000000	 0.000000	 0.000000	 0.000000	 0.000000	 0.000000	 0.000000
 0.001953	 1.271591	 0.064643	 0.016407	-0.716117	 179.981200	-175.563900	 1.552795	-17.874630	 2.061656	-9.637683	-0.083625	-5.600808	 68.867680	 4.461342	 1.292262	 28.425850	-2.713146	 175.529900	 2.284576	 17.881940	-2.217362	-10.657900	 0.059387	 5.798029	 69.288700	-4.677882	-1.288183	 28.361890	 2.710176	 0.042118	 2.019387	 2.754112	-0.761746	 3.548064	 1.466146	 0.642065	-4.596905	-4.170951	-101.478000	 1.740670	 90.353390	 1.471458	 64.837620	 1.626173	 2.053120	 4.287200	 1.378276	 13.392010	 4.416707	 8.367676	-6.580301	 5.266122	 0.000000	 0.000000	 0.000000	 0.000000	 0.000000	 0.000000	 0.000000	 0.089846	-3.783161	 0.005928	 0.010930	 1.223034	-1.024027	 101.796200	-0.213299	-89.955460	-0.985055	 64.463320	-7.309469	-2.522143	 3.862301	 0.935395	-22.125080	-1.046287	 8.439154	 15.208500	 5.323790	 0.000000	 0.000000	 0.000000	 0.000000	 0.000000	 0.000000	 0.000000
 0.001981	 1.271637	 0.064731	 0.018482	-0.766845	 179.979200	-175.561800	 1.598175	-17.875800	 2.056193	-9.612628	-0.084539	-5.580445	 68.847910	 4.443017	 1.292262	 28.425850	-2.713146	 175.530400	 2.344893	 17.882170	-2.218169	-10.661690	 0.059245	 5.791683	 69.283080	-4.671605	-1.288183	 28.361890	 2.710176	 0.044088	 1.968663	 2.755651	-0.784687	 3.541981	 1.468297	 0.652781	-4.594392	-4.170914	-101.478000	 1.740669	 90.353380	 1.382050	 64.760920	 1.737780	 2.043143	 4.266514	 1.378985	 13.450430	 4.673214	 8.314517	-6.580301	 5.266122	 0.000000	 0.000000	 0.000000	 0.000000	 0.000000	 0.000000	 0.000000	 0.089846	-3.783161	 0.005928	 0.010930	 1.223034	-1.024027	 101.796200	-0.213309	-89.955440	-3.692718	 64.465790	-4.878786	-2.559924	 3.919979	 1.194442	-18.516390	-0.501529	 10.989290	 15.208500	 5.323790	 0.000000	 0.000000	 0.000000	 0.000000	 0.000000	 0.000000	 0.000000
 0.001981	 1.271637	 0.064731	 0.018482	-0.766845	 179.979200	-175.561800	 1.597976	-17.875820	 2.056120	-9.612296	-0.084546	-5.580419	 68.847760	 4.443017	 1.292262	 28.425850	-2.713146	 175.530400	 2.344841	 17.882160	-2.218147	-10.661590	 0.059241	 5.791600	 69.283040	-4.671529	-1.288183	 28.361890	 2.710176	 0.044088	 1.968663	 2.755651	-0.784741	 3.541982	 1.468300	 0.652806	-4.594397	-4.170907	-101.478000	 1.740664	 90.353380	 1.370607	 64.718910	 1.758438	 2.043322	 4.266884	 1.379019	 13.461540	 4.769125	 8.291714	-6.580301	 5.266122	 0.000000	 0.000000	 0.000000	 0.000000	 0.000000	 0.000000	 0.000000	 0.089846	-3.783161	 0.005928	 0.010930	 1.223033	-1.024028	 101.796200	-0.213314	-89.955450	-4.559993	 64.433170	-4.095972	-2.575644	 3.943907	 1.278661	-17.352380	-0.317046	 11.800790	 15.208500	 5.323790	 0.000000	 0.000000	 0.000000	 0.000000	 0.000000	 0.000000	 0.000000
 0.001981	 1.271637	 0.064731	 0.018473	-0.766840	 179.979200	-175.561800	 1.598212	-17.875840	 2.056214	-9.612723	-0.084533	-5.580545	 68.847950	 4.443115	 1.292262	 28.425850	-2.713146	 175.530400	 2.344987	 17.882130	-2.218208	-10.661880	 0.059234	 5.791613	 69.283170	-4.671511	-1.288183	 28.361890	 2.710176	 0.044079	 1.968668	 2.755652	-0.784676	 3.541980	 1.468298	 0.652781	-4.594396	-4.170910	-101.478000	 1.740674	 90.353380	 1.358925	 64.676520	 1.778785	 2.043541	 4.267299	 1.378972	 13.472770	 4.867702	 8.269271	-6.580301	 5.266122	 0.000000	 0.000000	 0.000000	 0.000000	 0.000000	 0.000000	 0.000000	 0.089846	-3.783161	 0.005928	 0.010930	 1.223033	-1.024026	 101.796200	-0.213312	-89.955450	-5.445052	 64.393570	-3.297033	-2.592671	 3.969964	 1.366016	-16.148290	-0.129285	 12.636370	 15.208500	 5.323790	 0.000000	 0.000000	 0.000000	 0.000000	 0.000000	 0.000000	 0.000000
 0.001981	 1.271637	 0.064731	 0.018482	-0.766845	 179.979200	-175.561800	 1.598175	-17.875800	 2.056193	-9.612628	-0.084539	-5.580445	 68.847910	 4.443017	 1.292262	 28.425850	-2.713146	 175.530400	 2.344893	 17.882170	-2.218169	-10.661690	 0.059245	 5.791683	 69.283080	-4.671605	-1.288183	 28.361890	 2.710176	 0.044088	 1.968663	 2.755651	-0.784687	 3.541981	 1.468297	 0.652781	-4.594392	-4.170914	-101.478000	 1.740669	 90.353380	 1.342870	 64.624450	 1.784226	 2.043494	 4.267294	 1.378876	 13.480530	 4.851878	 8.267377	-6.580301	 5.266122	 0.000000	 0.000000	 0.000000	 0.000000	 0.000000	 0.000000	 0.000000	 0.089846	-3.783161	 0.005928	 0.010930	 1.223034	-1.024027	 101.796200	-0.213309	-89.955440	-6.558489	 64.338040	-2.235784	-2.613166	 4.001188	 1.270960	-16.549770	-0.274478	 11.733380	 15.208500	 5.323790	 0.000000	 0.000000	 0.000000	 0.000000	 0.000000	 0.000000	 0.000000
 0.001981	 1.271637	 0.064731	 0.018482	-0.766845	 179.979200	-175.561800	 1.598175	-17.875800	 2.056193	-9.612628	-0.084539	-5.580445	 68.847910	 4.443017	 1.292262	 28.425850	-2.713146	 175.530400	 2.344893	 17.882170	-2.218169	-10.661690	 0.059245	 5.791683	 69.283080	-4.671605	-1.288183	 28.361890	 2.710176	 0.044088	 1.968663	 2.755651	-0.784687	 3.541981	 1.468297	 0.652781	-4.594392	-4.170914	-101.478000	 1.740669	 90.353380	 1.321947	 64.558200	 1.788239	 2.043529	 4.267373	 1.378997	 13.489850	 4.826182	 8.268343	-6.580301	 5.266122	 0.000000	 0.000000	 0.000000	 0.000000	 0.000000	 0.000000	 0.000000	 0.089846	-3.783161	 0.005928	 0.010930	 1.223034	-1.024027	 101.796200	-0.213309	-89.955440	-7.995430	 64.253080	-0.865709	-2.640139	 4.042438	 1.141406	-17.127060	-0.479051	 10.495700	 15.208500	 5.323790	 0.000000	 0.000000	 0.000000	 0.000000	 0.000000	 0.000000	 0.000000
 0.001981	 1.271637	 0.064731	 0.018482	-0.766845	 179.979200	-175.561800	 1.598175	-17.875800	 2.056193	-9.612628	-0.084539	-5.580445	 68.847910	 4.443017	 1.292262	 28.425850	-2.713146	 175.530400	 2.344893	 17.882170	-2.218169	-10.661690	 0.059245	 5.791683	 69.283080	-4.671605	-1.288183	 28.361890	 2.710176	 0.044088	 1.968663	 2.755651	-0.784687	 3.541981	 1.468297	 0.652781	-4.594392	-4.170914	-101.478000	 1.740669	 90.353380	 1.303468	 64.497610	 1.793265	 2.043322	 4.266954	 1.379022	 13.498730	 4.805387	 8.267126	-6.580301	 5.266122	 0.000000	 0.000000	 0.000000	 0.000000	 0.000000	 0.000000	 0.000000	 0.089846	-3.783161	 0.005928	 0.010930	 1.223034	-1.024027	 101.796200	-0.213309	-89.955440	-9.336159	 64.160260	 0.408224	-2.665827	 4.081443	 1.027925	-17.600260	-0.661817	 9.396345	 15.208500	 5.323790	 0.000000	 0.000000	 0.000000	 0.000000	 0.000000	 0.000000	 0.000000
 0.001981	 1.271637	 0.064730	 0.018471	-0.766842	 179.979200	-175.561800	 1.598076	-17.875800	 2.056163	-9.612492	-0.084540	-5.580393	 68.847840	 4.442969	 1.292262	 28.425850	-2.713146	 175.530400	 2.344790	 17.882180	-2.218137	-10.661540	 0.059247	 5.791677	 69.283030	-4.671612	-1.288183	 28.361890	 2.710176	 0.044089	 1.968666	 2.755623	-0.784702	 3.541986	 1.468270	 0.652779	-4.594427	-4.170913	-101.478000	 1.740674	 90.353390	 1.281785	 64.427790	 1.800994	 2.043424	 4.267166	 1.379006	 13.509090	 4.783940	 8.264201	-6.580301	 5.266122	 0.000000	 0.000000	 0.000000	 0.000000	 0.000000	 0.000000	 0.000000	 0.089846	-3.783161	 0.005928	 0.010930	 1.223033	-1.024026	 101.796200	-0.213317	-89.955440	-10.894820	 64.035250	 1.887473	-2.696502	 4.128227	 0.902487	-18.081350	-0.865505	 8.173484	 15.208500	 5.323790	 0.000000	 0.000000	 0.000000	 0.000000	 0.000000	 0.000000	 0.000000
 0.001981	 1.271637	 0.064731	 0.018488	-0.766842	 179.979200	-175.561800	 1.598075	-17.875820	 2.056152	-9.612438	-0.084545	-5.580440	 68.847800	 4.443031	 1.292262	 28.425850	-2.713146	 175.530400	 2.344790	 17.882180	-2.218135	-10.661540	 0.059250	 5.791679	 69.283030	-4.671613	-1.288183	 28.361890	 2.710176	 0.044094	 1.968665	 2.755654	-0.784708	 3.541982	 1.468302	 0.652790	-4.594397	-4.170915	-101.478000	 1.740661	 90.353360	 1.258361	 64.351540	 1.806809	 2.043585	 4.267317	 1.378948	 13.520080	 4.764508	 8.263187	-6.580301	 5.266122	 0.000000	 0.000000	 0.000000	 0.000000	 0.000000	 0.000000	 0.000000	 0.089846	-3.783161	 0.005928	 0.010930	 1.223033	-1.024028	 101.796200	-0.213314	-89.955450	-12.624990	 63.875230	 3.525242	-2.730883	 4.180655	 0.770653	-18.539720	-1.082010	 6.877336	 15.208500	 5.323790	 0.000000	 0.000000	 0.000000	 0.000000	 0.000000	 0.000000	 0.000000
